<svg xmlns="http://www.w3.org/2000/svg" viewBox="0 0 900 1150" width="900" height="1150" role="img" aria-label="CoreSkeleton27 joint hierarchy">
<style>
.bones line{stroke:var(--bone,#8a93a3);stroke-width:3;stroke-linecap:round}
.j{fill:var(--joint,#3b4252);stroke:var(--bg,#fff);stroke-width:2}
.j.leaf,.j.opt{fill:var(--bg,#fff);stroke:var(--joint,#3b4252);stroke-width:2.5}
.j.root{fill:var(--accent,#2f6fdb);stroke:var(--bg,#fff)}
.j.hip{fill:var(--amber,#d98c1f);stroke:var(--bg,#fff)}
.j.foot{fill:var(--green,#2e9a5d);stroke:var(--bg,#fff)}
.j.grp{fill:var(--bg,#fff);stroke:var(--joint,#3b4252);stroke-width:2.5;stroke-dasharray:3 3}
.lbl{font:500 15px "JetBrains Mono","SF Mono",Menlo,Consolas,monospace;fill:var(--ink,#1c2230)}
.idx{fill:var(--muted,#6b7383);font-weight:400}
.title{font:600 20px "IBM Plex Sans",system-ui,sans-serif;fill:var(--ink,#1c2230)}
.sub{font:400 13px "IBM Plex Sans",system-ui,sans-serif;fill:var(--muted,#6b7383)}
.leg text{font:400 13px "IBM Plex Sans",system-ui,sans-serif;fill:var(--ink,#1c2230)}
.leg line.rule{stroke:var(--rule,#e2e4e0);stroke-width:1}
</style>
<rect width="900" height="1150" fill="var(--bg,#fff)"/>
<g transform="translate(40,44)"><text class="title" x="0" y="0">CoreSkeleton27</text>
<text class="sub" x="0" y="22">27 joints · index = row order in local_joints_positions / global_rot_data / velocities · figure faces the viewer</text></g>
<g class="bones">
<line x1="450" y1="610" x2="450" y2="532"/>
<line x1="450" y1="532" x2="450" y2="454"/>
<line x1="450" y1="454" x2="450" y2="376"/>
<line x1="450" y1="376" x2="450" y2="298"/>
<line x1="450" y1="298" x2="450" y2="220"/>
<line x1="450" y1="220" x2="450" y2="142"/>
<line x1="450" y1="298" x2="372" y2="306"/>
<line x1="372" y1="306" x2="296" y2="332"/>
<line x1="296" y1="332" x2="236" y2="432"/>
<line x1="236" y1="432" x2="184" y2="532"/>
<line x1="184" y1="532" x2="166" y2="626"/>
<line x1="184" y1="532" x2="104" y2="576"/>
<line x1="450" y1="298" x2="528" y2="306"/>
<line x1="528" y1="306" x2="604" y2="332"/>
<line x1="604" y1="332" x2="664" y2="432"/>
<line x1="664" y1="432" x2="716" y2="532"/>
<line x1="716" y1="532" x2="734" y2="626"/>
<line x1="716" y1="532" x2="796" y2="576"/>
<line x1="450" y1="610" x2="398" y2="654"/>
<line x1="398" y1="654" x2="388" y2="794"/>
<line x1="388" y1="794" x2="382" y2="932"/>
<line x1="382" y1="932" x2="338" y2="974"/>
<line x1="450" y1="610" x2="502" y2="654"/>
<line x1="502" y1="654" x2="512" y2="794"/>
<line x1="512" y1="794" x2="518" y2="932"/>
<line x1="518" y1="932" x2="562" y2="974"/>
</g><g class="joints">
<circle class="j root" cx="450" cy="610" r="11"/>
<text class="lbl" x="466" y="614" text-anchor="start"><tspan class="idx">0</tspan> Hips</text>
<circle class="j" cx="450" cy="532" r="8"/>
<text class="lbl" x="466" y="536" text-anchor="start"><tspan class="idx">1</tspan> Spine</text>
<circle class="j" cx="450" cy="454" r="8"/>
<text class="lbl" x="466" y="458" text-anchor="start"><tspan class="idx">2</tspan> Spine1</text>
<circle class="j" cx="450" cy="376" r="8"/>
<text class="lbl" x="466" y="380" text-anchor="start"><tspan class="idx">3</tspan> Spine2</text>
<circle class="j" cx="450" cy="298" r="8"/>
<text class="lbl" x="466" y="302" text-anchor="start"><tspan class="idx">4</tspan> Spine3</text>
<circle class="j" cx="450" cy="220" r="8"/>
<text class="lbl" x="466" y="224" text-anchor="start"><tspan class="idx">5</tspan> Neck</text>
<circle class="j leaf" cx="450" cy="142" r="8"/>
<text class="lbl" x="466" y="146" text-anchor="start"><tspan class="idx">6</tspan> Head</text>
<circle class="j" cx="372" cy="306" r="8"/>
<text class="lbl" x="356" y="310" text-anchor="end"><tspan class="idx">7</tspan> RightShoulder</text>
<circle class="j" cx="296" cy="332" r="8"/>
<text class="lbl" x="280" y="336" text-anchor="end"><tspan class="idx">8</tspan> RightArm</text>
<circle class="j" cx="236" cy="432" r="8"/>
<text class="lbl" x="220" y="436" text-anchor="end"><tspan class="idx">9</tspan> RightForeArm</text>
<circle class="j" cx="184" cy="532" r="8"/>
<text class="lbl" x="168" y="536" text-anchor="end"><tspan class="idx">10</tspan> RightHand</text>
<circle class="j leaf" cx="166" cy="626" r="8"/>
<text class="lbl" x="150" y="630" text-anchor="end"><tspan class="idx">11</tspan> RightHandEnd</text>
<circle class="j leaf" cx="104" cy="576" r="8"/>
<text class="lbl" x="88" y="580" text-anchor="end"><tspan class="idx">12</tspan> RightHandThumb1</text>
<circle class="j" cx="528" cy="306" r="8"/>
<text class="lbl" x="544" y="310" text-anchor="start"><tspan class="idx">13</tspan> LeftShoulder</text>
<circle class="j" cx="604" cy="332" r="8"/>
<text class="lbl" x="620" y="336" text-anchor="start"><tspan class="idx">14</tspan> LeftArm</text>
<circle class="j" cx="664" cy="432" r="8"/>
<text class="lbl" x="680" y="436" text-anchor="start"><tspan class="idx">15</tspan> LeftForeArm</text>
<circle class="j" cx="716" cy="532" r="8"/>
<text class="lbl" x="732" y="536" text-anchor="start"><tspan class="idx">16</tspan> LeftHand</text>
<circle class="j leaf" cx="734" cy="626" r="8"/>
<text class="lbl" x="750" y="630" text-anchor="start"><tspan class="idx">17</tspan> LeftHandEnd</text>
<circle class="j leaf" cx="796" cy="576" r="8"/>
<text class="lbl" x="812" y="580" text-anchor="start"><tspan class="idx">18</tspan> LeftHandThumb1</text>
<circle class="j hip" cx="398" cy="654" r="8"/>
<text class="lbl" x="382" y="658" text-anchor="end"><tspan class="idx">19</tspan> RightUpLeg</text>
<circle class="j" cx="388" cy="794" r="8"/>
<text class="lbl" x="372" y="798" text-anchor="end"><tspan class="idx">20</tspan> RightLeg</text>
<circle class="j foot" cx="382" cy="932" r="8"/>
<text class="lbl" x="366" y="936" text-anchor="end"><tspan class="idx">21</tspan> RightFoot</text>
<circle class="j foot leaf" cx="338" cy="974" r="8"/>
<text class="lbl" x="322" y="978" text-anchor="end"><tspan class="idx">22</tspan> RightToeBase</text>
<circle class="j hip" cx="502" cy="654" r="8"/>
<text class="lbl" x="518" y="658" text-anchor="start"><tspan class="idx">23</tspan> LeftUpLeg</text>
<circle class="j" cx="512" cy="794" r="8"/>
<text class="lbl" x="528" y="798" text-anchor="start"><tspan class="idx">24</tspan> LeftLeg</text>
<circle class="j foot" cx="518" cy="932" r="8"/>
<text class="lbl" x="534" y="936" text-anchor="start"><tspan class="idx">25</tspan> LeftFoot</text>
<circle class="j foot leaf" cx="562" cy="974" r="8"/>
<text class="lbl" x="578" y="978" text-anchor="start"><tspan class="idx">26</tspan> LeftToeBase</text>
</g>
<g class="leg" transform="translate(40,1030)"><line class="rule" x1="0" y1="-24" x2="820" y2="-24"/>

  <circle class="j root" cx="8" cy="0" r="8"/><text x="24" y="4">Root — index 0, drives root_pos / heading</text>
  <circle class="j hip" cx="8" cy="28" r="8"/><text x="24" y="32">hip_joint_idx — heading angle from R−L hip vector</text>
  <circle class="j foot" cx="428" cy="0" r="8"/><text x="444" y="4">foot_contacts channels (order 21, 22, 25, 26)</text>
  <circle class="j leaf" cx="428" cy="28" r="8"/><text x="444" y="32">Leaf joint (no children)</text></g>
</svg>